HIERARCHY
ROOT Hips
{
	OFFSET 193.743393 91.357132 495.993408
	CHANNELS 6 Xposition Yposition Zposition Zrotation Yrotation Xrotation 
	JOINT LeftUpLeg
	{
		OFFSET 0.103457 1.857819 10.548500
		CHANNELS 3 Zrotation Yrotation Xrotation
		JOINT LeftLeg
		{
			OFFSET 43.500000 -0.000019 -0.000010
			CHANNELS 3 Zrotation Yrotation Xrotation
			JOINT LeftFoot
			{
				OFFSET 42.372196 0.000008 0.000000
				CHANNELS 3 Zrotation Yrotation Xrotation
				JOINT LeftToe
				{
					OFFSET 17.300003 0.000001 0.000006
					CHANNELS 3 Zrotation Yrotation Xrotation
					End Site
					{
						OFFSET 0.000000 0.000000 0.000000
					}
				}
			}
		}
	}
	JOINT RightUpLeg
	{
		OFFSET 0.103456 1.857821 -10.548498
		CHANNELS 3 Zrotation Yrotation Xrotation
		JOINT RightLeg
		{
			OFFSET 43.500046 -0.000031 0.000019
			CHANNELS 3 Zrotation Yrotation Xrotation
			JOINT RightFoot
			{
				OFFSET 42.372261 -0.000004 0.000021
				CHANNELS 3 Zrotation Yrotation Xrotation
				JOINT RightToe
				{
					OFFSET 17.300016 0.000003 0.000000
					CHANNELS 3 Zrotation Yrotation Xrotation
					End Site
					{
						OFFSET 0.000000 0.000000 0.000000
					}
				}
			}
		}
	}
	JOINT Spine
	{
		OFFSET 6.901967 -2.603733 -0.000002
		CHANNELS 3 Zrotation Yrotation Xrotation
		JOINT Spine1
		{
			OFFSET 12.588102 0.000004 -0.000004
			CHANNELS 3 Zrotation Yrotation Xrotation
			JOINT Spine2
			{
				OFFSET 12.343203 -0.000004 0.000000
				CHANNELS 3 Zrotation Yrotation Xrotation
				JOINT Neck
				{
					OFFSET 25.832895 -0.000011 0.000005
					CHANNELS 3 Zrotation Yrotation Xrotation
					JOINT Head
					{
						OFFSET 11.766605 0.000003 0.000008
						CHANNELS 3 Zrotation Yrotation Xrotation
						End Site
						{
							OFFSET 0.000000 0.000000 0.000000
						}
					}
				}
				JOINT LeftShoulder
				{
					OFFSET 19.745905 -1.480360 6.000111
					CHANNELS 3 Zrotation Yrotation Xrotation
					JOINT LeftArm
					{
						OFFSET 11.284124 0.000007 -0.000017
						CHANNELS 3 Zrotation Yrotation Xrotation
						JOINT LeftForeArm
						{
							OFFSET 33.000050 0.000003 0.000017
							CHANNELS 3 Zrotation Yrotation Xrotation
							JOINT LeftHand
							{
								OFFSET 25.200005 0.000010 0.000011
								CHANNELS 3 Zrotation Yrotation Xrotation
								End Site
								{
									OFFSET 0.000000 0.000000 0.000000
								}
							}
						}
					}
				}
				JOINT RightShoulder
				{
					OFFSET 19.746092 -1.480387 -6.000073
					CHANNELS 3 Zrotation Yrotation Xrotation
					JOINT RightArm
					{
						OFFSET 11.284132 -0.000045 -0.000015
						CHANNELS 3 Zrotation Yrotation Xrotation
						JOINT RightForeArm
						{
							OFFSET 33.000092 0.000031 0.000005
							CHANNELS 3 Zrotation Yrotation Xrotation
							JOINT RightHand
							{
								OFFSET 25.199797 0.000145 0.000419
								CHANNELS 3 Zrotation Yrotation Xrotation
								End Site
								{
									OFFSET 0.000000 0.000000 0.000000
								}
							}
						}
					}
				}
			}
		}
	}
}
MOTION
Frames: 6
Frame Time: 0.033333
0.7695589999999868 86.810402 -1143.274474 101.24122578305835 -2.058799535880344 95.53883706552067 -174.249423 11.316604000000002 166.749561 -21.836221999999996 5.247642000000006 -3.45301 89.797166 0.38398400000000443 -12.207603999999998 21.454561999999996 0.0031190000000047065 1.8000000000000034e-05 141.199886 3.5454959999999978 -171.874252 -41.446947 -1.5743779999999998 -0.19515299999999994 77.291794 -0.1716719999999977 -1.0576879999999997 21.454555 -0.0030999999999931915 0.0 7.539525 -1.5853299999999977 -1.204539 5.101833000000001 -3.1163189999999963 -2.478278000000001 4.783537 -3.1313739999999965 -2.459407 -5.582215 0.6466829999999989 -6.095671000000001 -2.8575309999999994 4.767631999999996 -6.697054 -179.666815 -75.38979100000006 -1.7395450000000003 -11.226189 46.855863000000014 39.504636 -33.517569000000016 -13.165259999999993 1.2102650000000006 8.270932 0.49021100000000234 11.105993000000003 -170.204503 71.92769100000004 11.419636000000004 -21.838879 -50.554501999999985 -19.362301 -22.598948 8.222620000000001 -0.670156 10.298168000000004 7.412833000000004 -34.627119 
1.8996150000000114 86.13765 -1138.6020800000001 100.76501796649748 -2.1120393078862985 95.38838902694428 -170.164983 11.350197000000009 167.261183 -19.908079999999998 5.263385000000004 -3.2034560000000005 90.19893900000001 0.11817999999999702 -13.13658 21.454555 0.00309900000000196 1.6999999999999973e-05 142.39126200000004 1.9653090000000055 -170.568333 -28.189681 -1.699751999999995 1.6095269999999997 75.30620999999998 -1.7059329999999953 -1.925903 21.454550999999995 -0.0030849999999974925 9.99999999999878e-07 7.498698000000004 -1.4066969999999943 -1.437249 5.021253999999999 -2.750112999999996 -2.9346010000000002 4.703207000000001 -2.7679029999999964 -2.917954 -5.678533 1.314421999999999 -6.366959 -3.2403500000000003 4.4389280000000015 -6.573002 179.306795 -75.46392600000003 -0.6905620000000019 -11.782921999999997 46.438398000000014 35.884605 -33.696834 -13.94853 1.2648840000000001 8.017057000000001 -0.7133139999999937 10.982478 -169.581398 71.29184099999999 12.059840000000001 -17.374588999999997 -49.95637199999999 -22.689009000000002 -20.344278999999997 7.580247000000009 -0.5996659999999999 10.351529000000001 7.287252000000004 -34.39727 
2.8432650000000024 85.51820400000001 -1134.05368 100.40481409848674 -2.1209351376814443 95.29055300746003 -167.156026 11.138001000000003 166.85103 -19.73481 5.698132999999999 -2.3486910000000005 89.54989299999998 -0.7232290000000005 -14.249511999999998 21.45456 0.0031220000000038465 1.7000000000000057e-05 142.886328 0.4169060000000044 -169.43724 -20.614548999999997 -2.397956 3.3255050000000006 73.54675999999998 -3.3232079999999975 -3.214165999999999 21.454553 -0.003078999999999213 3.999999999999793e-06 7.479015000000002 -1.276385999999994 -1.5899760000000003 4.9814359999999995 -2.483586999999996 -3.2337809999999996 4.6635789999999995 -2.5031870000000036 -3.2187499999999996 -5.76229 1.841162000000002 -6.803131 -3.3804460000000005 4.1530320000000005 -6.665584000000001 178.005508 -75.63786999999992 0.6369900000000009 -12.247411999999995 46.68558299999999 31.143637000000002 -33.607543 -14.761283999999998 1.3154140000000007 7.997464000000001 -2.5202319999999974 10.680802 -168.301421 70.769086 13.379587 -13.217688000000006 -49.839699 -25.98507599999999 -18.039959 7.05764 -0.5403549999999998 10.486850000000002 7.151732000000004 -34.69216699999999 
3.6512710000000084 84.796013 -1129.4546810000002 100.11841112239608 -1.9940658959898694 95.07198003643025 -165.096273 10.843398 166.276953 -21.523116 6.38334300000001 -1.766439 87.95317200000002 -1.525492999999997 -15.301420000000004 21.454558000000006 0.0031030000000050535 1.7999999999999946e-05 143.136873 -0.6375999999999995 -168.922121 -19.636386 -2.8772829999999936 3.2887920000000004 73.28105200000002 -4.204997999999998 -6.192425 21.454557000000005 -0.003091999999999726 -1.0000000000000576e-06 7.462041 -1.137602999999993 -1.651503 4.944414999999999 -2.204058999999997 -3.350388999999999 4.626653000000002 -2.224387999999999 -3.337025 -5.767399 1.723951000000007 -7.098046000000001 -3.2499599999999997 4.159733000000009 -6.992905 177.495197 -75.54610600000008 1.1612190000000013 -12.378472000000004 47.140193 26.639053999999998 -33.936471 -15.53037999999999 1.3723030000000007 8.104475 -4.7318380000000015 10.233437999999998 -166.942705 70.60533200000002 14.782467000000002 -8.971699000000006 -50.277084 -29.231764999999996 -15.714107000000002 6.601955000000005 -0.4893 10.827258000000002 6.836180999999995 -35.449713 
4.119768999999991 84.153069 -1124.8487850000001 99.22223634832001 -1.7536524032682208 94.79836307458469 -164.281882 9.60300100000001 165.935826 -25.422775 6.994058000000001 -1.6238240000000002 85.08203399999998 -2.2487759999999946 -16.300382999999997 21.454563 0.003113999999997659 1.899999999999995e-05 142.78377999999998 -1.6829979999999942 -169.267606 -24.363751 -2.8722099999999977 3.3503290000000003 70.719464 -5.7148989999999955 -10.125841000000001 21.454551 -0.00309900000000196 -9.999999999998638e-07 7.430122 -0.8508489999999963 -1.603658 4.871038999999999 -1.6339169999999925 -3.2417639999999994 4.553345000000001 -1.6536019999999927 -3.2318529999999996 -5.450406000000001 0.9015519999999995 -7.187714000000003 -3.04776 4.494794 -7.550728000000001 178.066679 -75.00007399999993 0.589098999999999 -12.239764000000001 47.38773600000001 23.456834999999998 -34.740849 -16.13453399999999 1.4294649999999993 8.120695 -6.8205610000000005 9.634302 -166.162793 70.619573 15.587680000000002 -4.391313000000001 -51.00116899999999 -31.993910999999994 -13.49885 6.061448000000005 -0.4374550000000001 11.286797 6.296903000000008 -36.597335 
4.120376999999991 84.04203 -1120.0936580000002 97.6457057300804 -1.3262314940139068 94.28066214770357 -166.038238 6.735792000000003 164.66953600000002 -33.291278 7.262199000000012 -1.548651000000001 77.507334 -3.020361999999997 -14.768429999999999 21.454560000000004 0.003109000000003333 1.7000000000000074e-05 142.944808 -3.7391109999999927 -170.114071 -29.218043000000005 -2.8290929999999905 4.612402 68.00404800000001 -7.537819000000003 -11.964832000000003 21.454553000000004 -0.00309600000000282 -1.941256522282011e-19 7.395277000000001 -0.4512209999999908 -1.422935 4.788381 -0.8436129999999974 -2.863218 4.470686999999998 -0.8610149999999905 -2.8580919999999996 -4.7547239999999995 -0.06501799999999079 -7.278746000000002 -2.768992 4.914477000000005 -8.196447000000001 179.235311 -74.36654000000001 -0.594256000000001 -12.039689 47.68408099999999 21.716098 -35.54392499999999 -16.526371999999995 1.4734389999999997 7.9119240000000035 -8.217023999999999 9.020039999999998 -166.173803 70.46843500000001 15.57674699999999 -0.16311500000000365 -51.772431 -33.671933999999986 -11.290457000000002 5.2924539999999975 -0.3741670000000001 11.715949999999998 5.61441200000001 -37.879362 
